<?xml version="1.0" standalone="no"?>
<!DOCTYPE svg PUBLIC "-//W3C//DTD SVG 20010904//EN"
 "http://www.w3.org/TR/2001/REC-SVG-20010904/DTD/svg10.dtd">
<svg version="1.0" xmlns="http://www.w3.org/2000/svg"
 width="512.000000pt" height="512.000000pt" viewBox="0 0 512.000000 512.000000"
 preserveAspectRatio="xMidYMid meet">

<g transform="translate(0.000000,512.000000) scale(0.100000,-0.100000)"
fill="#000000" stroke="none">
<path d="M1570 4967 c-14 -7 -33 -28 -42 -47 -17 -32 -18 -92 -18 -815 0 -517
4 -793 11 -818 7 -26 21 -44 42 -57 30 -19 53 -20 372 -20 l340 0 245 -245
245 -245 245 245 245 245 332 0 c182 0 343 4 356 9 14 6 35 20 46 32 21 23 21
24 21 842 0 542 -3 825 -10 838 -28 51 20 49 -1237 49 -914 0 -1173 -3 -1193
-13z m2250 -867 l0 -690 -318 0 -317 0 -210 -210 -210 -210 -210 210 -210 210
-318 0 -317 0 0 690 0 690 1055 0 1055 0 0 -690z"/>
<path d="M2707 4629 c-50 -8 -118 -38 -153 -67 -36 -31 -92 -110 -99 -141 -8
-40 16 -85 55 -101 44 -18 85 2 121 61 37 59 84 83 147 76 51 -6 91 -31 110
-71 12 -24 12 -34 -3 -73 -13 -34 -36 -60 -96 -110 -44 -36 -88 -82 -99 -103
-24 -47 -44 -160 -36 -204 11 -60 70 -90 124 -62 34 18 49 51 55 126 4 50 8
57 48 89 125 100 180 183 187 282 9 117 -51 215 -161 268 -69 33 -129 42 -200
30z"/>
<path d="M2689 3710 c-29 -17 -43 -66 -29 -100 15 -36 37 -50 80 -50 41 0 80
39 80 80 0 60 -77 101 -131 70z"/>
<path d="M4198 3805 c-15 -9 -31 -30 -38 -49 -10 -32 -8 -43 24 -115 93 -212
130 -393 130 -636 0 -253 -24 -368 -134 -645 -112 -282 -178 -508 -219 -755
-33 -194 -41 -311 -41 -594 0 -198 -3 -271 -12 -284 -10 -12 -244 -62 -928
-196 -503 -100 -926 -182 -940 -183 l-24 -3 -18 280 c-10 154 -24 305 -31 335
l-13 55 -294 5 c-337 6 -347 8 -380 83 -12 27 -45 216 -91 522 -82 548 -70
512 -187 560 -37 16 -97 44 -134 63 -59 30 -66 37 -58 53 6 10 90 99 188 196
234 234 234 234 244 473 11 267 39 425 102 581 35 84 34 123 -3 160 -33 33
-67 37 -111 14 -22 -11 -35 -33 -58 -92 -82 -213 -121 -441 -122 -706 0 -53
-5 -88 -17 -110 -9 -18 -98 -115 -198 -217 -188 -192 -215 -230 -223 -312 -9
-93 60 -162 243 -243 l81 -37 68 -451 c38 -249 77 -474 87 -501 40 -107 111
-173 221 -208 50 -15 94 -18 269 -18 160 0 209 -3 209 -12 0 -7 9 -136 20
-286 21 -300 25 -316 90 -359 22 -15 48 -23 78 -23 67 0 1959 378 2001 400 45
23 96 75 112 115 9 21 15 134 20 370 8 392 22 517 89 786 39 154 76 265 159
477 121 309 157 491 148 762 -3 109 -12 202 -27 274 -37 186 -123 420 -171
465 -26 24 -72 27 -111 6z"/>
</g>
</svg>
